custom-analysis
version=1
nRows=6
nColumns=98
inDegrees=no

This file contains tibia displacement and acting force.

Units are S.I. units (seconds, meters, Newtons, ...)
Angles are in degrees.

endheader
time	APT	SIT	knee_angle	aACL_R_force	pACL_R_force	aPCL_R_force	pPCL_R_force	aMCL_R_force	mMCL_R_force	pMCL_R_force	aLCL_R_force	mLCL_R_force	pLCL_R_force	aPCL_L_force	pPCL_L_force	aMCL_L_force	aLCL_L_force	aACL_R_length	pACL_R_length	aPCL_R_length	pPCL_R_length	aMCL_R_length	mMCL_R_length	pMCL_R_length	aLCL_R_length	mLCL_R_length	pLCL_R_length	aPCL_L_length	pPCL_L_length	aMCL_L_length	aLCL_L_length	aACL_R_strain	pACL_R_strain	aPCL_R_strain	pPCL_R_strain	aMCL_R_strain	mMCL_R_strain	pMCL_R_strain	aLCL_R_strain	mLCL_R_strain	pLCL_R_strain	aPCL_L_strain	pPCL_L_strain	aMCL_L_strain	aLCL_L_strain	femur_lat_meniscii_r.femur_lat_r.force.X	femur_lat_meniscii_r.femur_lat_r.force.Y	femur_lat_meniscii_r.femur_lat_r.force.Z	femur_lat_meniscii_r.femur_lat_r.torque.X	femur_lat_meniscii_r.femur_lat_r.torque.Y	femur_lat_meniscii_r.femur_lat_r.torque.Z	femur_lat_meniscii_r.meniscus_lat_r.force.X	femur_lat_meniscii_r.meniscus_lat_r.force.Y	femur_lat_meniscii_r.meniscus_lat_r.force.Z	femur_lat_meniscii_r.meniscus_lat_r.torque.X	femur_lat_meniscii_r.meniscus_lat_r.torque.Y	femur_lat_meniscii_r.meniscus_lat_r.torque.Z	femur_med_meniscii_r.femur_med_r.force.X	femur_med_meniscii_r.femur_med_r.force.Y	femur_med_meniscii_r.femur_med_r.force.Z	femur_med_meniscii_r.femur_med_r.torque.X	femur_med_meniscii_r.femur_med_r.torque.Y	femur_med_meniscii_r.femur_med_r.torque.Z	femur_med_meniscii_r.meniscus_med_r.force.X	femur_med_meniscii_r.meniscus_med_r.force.Y	femur_med_meniscii_r.meniscus_med_r.force.Z	femur_med_meniscii_r.meniscus_med_r.torque.X	femur_med_meniscii_r.meniscus_med_r.torque.Y	femur_med_meniscii_r.meniscus_med_r.torque.Z	femur_med_tibia_r.tibia_upper_r.force.X	femur_med_tibia_r.tibia_upper_r.force.Y	femur_med_tibia_r.tibia_upper_r.force.Z	femur_med_tibia_r.tibia_upper_r.torque.X	femur_med_tibia_r.tibia_upper_r.torque.Y	femur_med_tibia_r.tibia_upper_r.torque.Z	femur_med_tibia_r.femur_med_r.force.X	femur_med_tibia_r.femur_med_r.force.Y	femur_med_tibia_r.femur_med_r.force.Z	femur_med_tibia_r.femur_med_r.torque.X	femur_med_tibia_r.femur_med_r.torque.Y	femur_med_tibia_r.femur_med_r.torque.Z	femur_lat_tibia_r.tibia_upper_r.force.X	femur_lat_tibia_r.tibia_upper_r.force.Y	femur_lat_tibia_r.tibia_upper_r.force.Z	femur_lat_tibia_r.tibia_upper_r.torque.X	femur_lat_tibia_r.tibia_upper_r.torque.Y	femur_lat_tibia_r.tibia_upper_r.torque.Z	femur_lat_tibia_r.femur_lat_r.force.X	femur_lat_tibia_r.femur_lat_r.force.Y	femur_lat_tibia_r.femur_lat_r.force.Z	femur_lat_tibia_r.femur_lat_r.torque.X	femur_lat_tibia_r.femur_lat_r.torque.Y	femur_lat_tibia_r.femur_lat_r.torque.Z	femur_lat_meniscii_force_r	femur_med_meniscii_force_r	femur_lat_tibia_force_r	femur_med_tibia_force_r
      0.11102746	      0.00858247	      0.00795335	     29.55795744	      8.81169329	    -13.21551699	     27.22296394	     61.72871228	      0.00000000	      0.00000000	    -38.33721251	      0.00000000	      0.00000000	      0.00000000	      0.00000000	      0.00000000	      0.00000001	      0.00000000	      0.03252634	      0.02541775	      0.03111564	      0.03024208	      0.05737199	      0.05954015	      0.05873116	      0.05330856	      0.05017749	      0.04654422	      0.01525851	      0.01651186	      0.06550154	      0.04489616	      0.04905069	      0.01432825	      0.00065413	      0.01185367	     -0.04423018	     -0.00423703	      0.00005382	     -0.04767377	     -0.10904222	     -0.11077913	      0.00000079	     -0.32847694	      0.00000060	     -0.00000086	     41.71722072	    250.35929237	     36.71313836	    -21.14170726	      1.06913182	     16.14248582	    -41.71722072	   -250.35929237	    -36.71313836	      7.61375462	     -1.54170335	      2.45198173	    -24.31495970	     52.60979443	      7.34513768	     -1.76838911	      0.56180100	     -9.95684281	     24.31495970	    -52.60979443	     -7.34513768	     -0.93300097	     -0.58994067	      1.21585370	   -101.84518016	   -512.46635332	    117.74036213	    -12.19016028	      2.57986670	      0.69950948	    101.84518016	    512.46635332	   -117.74036213	     58.24922251	     -1.54340396	     43.65270483	    -40.31282727	   -152.62384723	    -38.47056267	      5.16936494	     -1.46035931	      0.37734546	     40.31282727	    152.62384723	     38.47056267	    -19.56797108	      0.97208186	     16.64791383	    256.45263950	     58.42053391	    162.47814307	    535.59032560
      0.11218149	      0.00867573	      0.00812174	     30.09337849	      8.05929193	    -13.65571291	     24.94277490	     58.10246660	      0.00000000	      0.00000000	      0.00000000	      0.00000000	      0.00000000	      0.00000000	      0.00000000	      0.00000000	      0.00000001	      0.00000000	      0.03249907	      0.02537557	      0.03119714	      0.03029328	      0.05741274	      0.05952891	      0.05866688	      0.05329407	      0.05012885	      0.04646254	      0.01525851	      0.01651186	      0.06550154	      0.04489616	      0.04817128	      0.01264491	      0.00327496	      0.01356662	     -0.04355148	     -0.00442501	     -0.00104072	     -0.04793246	     -0.10990604	     -0.11233971	      0.00000079	     -0.32847694	      0.00000060	     -0.00000086	     46.75105270	    263.77853546	     34.79128582	    -20.65670791	      1.16985841	     18.15111195	    -46.75105270	   -263.77853546	    -34.79128582	      7.88030263	     -1.63727002	      2.56107294	    -22.46090339	     53.80197951	      7.89855378	     -1.96612085	      0.52062657	     -9.17706987	     22.46090339	    -53.80197951	     -7.89855378	     -0.94659855	     -0.56076866	      1.16768148	   -115.87295674	   -532.30422890	    122.85933645	    -12.69733434	      2.87424825	      0.48879653	    115.87295674	    532.30422890	   -122.85933645	     60.73474903	     -1.78409947	     49.54018993	    -42.15835969	   -150.90263773	    -37.55492231	      5.07615794	     -1.50223621	      0.33511214	     42.15835969	    150.90263773	     37.55492231	    -19.13439782	      1.01426428	     17.40713159	    270.13924237	     58.83478845	    161.11891743	    558.45210248
      0.11333552	      0.00877802	      0.00829467	     30.63345004	      8.88549625	    -12.55254076	     26.14061620	     61.70088963	      0.00000000	      0.00000000	      0.00000000	      0.00000000	      0.00000000	      0.00000000	      0.00000000	      0.00000000	      0.00000001	      0.00000000	      0.03247353	      0.02533504	      0.03127334	      0.03033826	      0.05745148	      0.05951482	      0.05859983	      0.05327706	      0.05007731	      0.04637770	      0.01525851	      0.01651186	      0.06550154	      0.04489616	      0.04734753	      0.01102784	      0.00572574	      0.01507159	     -0.04290601	     -0.00466075	     -0.00218238	     -0.04823640	     -0.11082114	     -0.11396053	      0.00000079	     -0.32847694	      0.00000060	     -0.00000086	     46.51563041	    257.70756479	     35.37298021	    -20.76062627	      1.15588365	     18.04637577	    -46.51563041	   -257.70756479	    -35.37298021	      7.74019846	     -1.63465858	      2.56363014	    -19.67763718	     52.03986974	      8.53733619	     -2.27201480	      0.45241065	     -8.02402852	     19.67763718	    -52.03986974	     -8.53733619	     -0.89040004	     -0.50739328	      1.07015417	   -131.28873034	   -553.04088308	    127.64114999	    -13.19841744	      3.19369640	      0.26797694	    131.28873034	    553.04088308	   -127.64114999	     63.08832497	     -2.05235982	     55.99278542	    -43.51965158	   -149.57675040	    -37.51466403	      5.03153211	     -1.54231706	      0.31564915	     43.51965158	    149.57675040	     37.51466403	    -19.08280300	      1.04594611	     17.96392189	    264.25014769	     56.28715268	    160.23268815	    582.56605827
      0.11448955	      0.00888527	      0.00846663	     31.17751830	      8.22997777	    -12.80906945	     29.09282273	     68.42061984	      0.00000000	      0.00000000	      0.00000000	      0.00000000	      0.00000000	      0.00000000	      0.00000000	      0.00000000	      0.00000001	      0.00000000	      0.03245078	      0.02529730	      0.03135124	      0.03038404	      0.05749380	      0.05950359	      0.05853575	      0.05326360	      0.05002895	      0.04629591	      0.01525851	      0.01651186	      0.06550154	      0.04489616	      0.04661356	      0.00952181	      0.00823071	      0.01660351	     -0.04220095	     -0.00484844	     -0.00327354	     -0.04847690	     -0.11167976	     -0.11552316	      0.00000079	     -0.32847694	      0.00000060	     -0.00000086	     45.10172487	    251.05950918	     33.98566778	    -20.00343531	      1.12967221	     17.45659507	    -45.10172487	   -251.05950918	    -33.98566778	      7.49113616	     -1.59599094	      2.59303377	    -18.00837911	     50.15493601	      9.28045004	     -2.62710232	      0.40935399	     -7.34481243	     18.00837911	    -50.15493601	     -9.28045004	     -0.82506720	     -0.47828656	      1.01853852	   -137.92880301	   -552.65700550	    127.62432306	    -13.18270488	      3.34158917	      0.21691548	    137.92880301	    552.65700550	   -127.62432306	     63.04962784	     -2.18230682	     58.69638824	    -42.72537916	   -142.46608157	    -36.27304809	      4.80323808	     -1.51662511	      0.30094606	     42.72537916	    142.46608157	     36.27304809	    -18.39936480	      1.02934449	     17.62753430	    257.33260258	     54.09201492	    153.09401177	    583.73117809
      0.11533740	      0.00896369	      0.00859391	     31.57907870	      7.25331417	    -13.40402244	     31.18696847	     72.24374429	      0.00000000	      0.00000000	      0.00000000	      0.00000000	      0.00000000	      0.00000000	      0.00000000	      0.00000000	      0.00000001	      0.00000000	      0.03243279	      0.02526863	      0.03140964	      0.03041832	      0.05752539	      0.05949555	      0.05848893	      0.05325439	      0.04999382	      0.04623620	      0.01525851	      0.01651186	      0.06550154	      0.04489616	      0.04603359	      0.00837765	      0.01010882	      0.01775029	     -0.04167467	     -0.00498290	     -0.00407082	     -0.04864135	     -0.11230356	     -0.11666379	      0.00000079	     -0.32847694	      0.00000060	     -0.00000086	     42.78370108	    251.83512716	     33.49044132	    -19.81855616	      1.06061864	     16.44852108	    -42.78370108	   -251.83512716	    -33.49044132	      7.49036741	     -1.52101205	      2.76259561	    -17.17159923	     49.93806276	      9.90165855	     -2.88820233	      0.39010856	     -7.00394183	     17.17159923	    -49.93806276	     -9.90165855	     -0.80332976	     -0.46951766	      1.00252570	   -142.22576035	   -549.44435847	    127.69330142	    -13.13016503	      3.44101287	      0.17540741	    142.22576035	    549.44435847	   -127.69330142	     63.00626713	     -2.26628828	     60.43162723	    -41.27890081	   -136.55617682	    -35.17241013	      4.61327246	     -1.47373405	      0.31054788	     41.27890081	    136.55617682	     35.17241013	    -17.80388475	      0.99716630	     17.02042956	    257.62955189	     53.72817487	    146.93071672	    581.74122184
      0.11618524	      0.00904186	      0.00872311	     31.98216288	      6.14104936	    -14.09021430	     33.54189066	     75.89970691	      0.00000000	      0.00000000	      0.00000000	      0.00000000	      0.00000000	      0.00000000	      0.00000000	      0.00000000	      0.00000001	      0.00000000	      0.03241339	      0.02523887	      0.03146778	      0.03045192	      0.05755613	      0.05948645	      0.05844108	      0.05324447	      0.04995775	      0.04617555	      0.01525851	      0.01651186	      0.06550154	      0.04489616	      0.04540760	      0.00718998	      0.01197875	      0.01887465	     -0.04116257	     -0.00513526	     -0.00488554	     -0.04881855	     -0.11294403	     -0.11782249	      0.00000079	     -0.32847694	      0.00000060	     -0.00000086	     42.94574586	    252.94043376	     32.15352997	    -19.27556410	      1.07064307	     16.47968057	    -42.94574586	   -252.94043376	    -32.15352997	      7.45427953	     -1.52015891	      2.84555721	    -15.88801440	     50.49106773	     10.31250326	     -3.04066273	      0.36073364	     -6.46628709	     15.88801440	    -50.49106773	    -10.31250326	     -0.80828981	     -0.44918311	      0.96943497	   -147.62474908	   -550.04840991	    128.60258501	    -13.16574368	      3.56912665	      0.13494234	    147.62474908	    550.04840991	   -128.60258501	     63.38046508	     -2.37123048	     62.63079856	    -40.19240733	   -130.72366005	    -33.55289149	      4.40488557	     -1.43223359	      0.30452184	     40.19240733	    130.72366005	     33.55289149	    -16.99092181	      0.97183782	     16.56578915	    258.56730189	     53.92703075	    140.81868281	    583.85353014
